# xmcd
#
# Track frame offsets: 
#        150
#        11821
#        26094
#        40083
#        54133
#        70933
#        84064
#        101471
#        119105
#        132709
#
# Disc length: 2031 seconds
#
# Revision: 0
# Processed by: cddbd v1.5.2PL0 Copyright (c) Steve Scherf et al.
# Submitted via: ExactAudioCopyFreeDBPlugin 1.0
#
DISCID=8107ed0a
DTITLE=Josephine Oniyama - Portrait
DYEAR=2012
DGENRE=Blues
TTITLE0=When We Were Trespassers
TTITLE1=A Freak A
TTITLE2=Portrait
TTITLE3=Original Love
TTITLE4=I Think It Was Love
TTITLE5=What A Day
TTITLE6=Last Minute
TTITLE7=Pepper Shaker
TTITLE8=I Pray That I Move
TTITLE9=House Of Mirrors
EXTD=
EXTT0=
EXTT1=
EXTT2=
EXTT3=
EXTT4=
EXTT5=
EXTT6=
EXTT7=
EXTT8=
EXTT9=
PLAYORDER=
